<svg xmlns="http://www.w3.org/2000/svg" width="1920" height="1080" viewBox="0 0 1920 1080">
<defs>
  <linearGradient id="gGround" x1="0" y1="0" x2="1" y2="1">
    <stop offset="0" stop-color="#F4F0EE"/><stop offset="0.55" stop-color="#EFEAE6"/><stop offset="1" stop-color="#F4F0EE"/>
  </linearGradient>
  <linearGradient id="gDark" x1="0" y1="0" x2="1" y2="1">
    <stop offset="0" stop-color="#0B1D34"/><stop offset="0.55" stop-color="#162943"/><stop offset="1" stop-color="#0B1D34"/>
  </linearGradient>
  <linearGradient id="gGold" x1="0" y1="0" x2="1" y2="0">
    <stop offset="0" stop-color="#8A6522"/><stop offset="0.5" stop-color="#D4AF37"/><stop offset="1" stop-color="#E8DCC0"/>
  </linearGradient>
  <linearGradient id="gSky" x1="0" y1="0" x2="1" y2="0">
    <stop offset="0" stop-color="#0B1D34"/><stop offset="0.5" stop-color="#20344D"/><stop offset="1" stop-color="#DADDE3"/>
  </linearGradient>
  <linearGradient id="gScrim" x1="0" y1="0" x2="0" y2="1">
    <stop offset="0" stop-color="#0B1D34" stop-opacity="0.86"/><stop offset="0.5" stop-color="#0B1D34" stop-opacity="0.46"/><stop offset="1" stop-color="#0B1D34" stop-opacity="0.92"/>
  </linearGradient>
  <linearGradient id="gFadeL" x1="0" y1="0" x2="1" y2="0">
    <stop offset="0" stop-color="#F4F0EE" stop-opacity="1"/><stop offset="1" stop-color="#F4F0EE" stop-opacity="0"/>
  </linearGradient>
  <linearGradient id="gStrip" x1="0" y1="0" x2="1" y2="0">
    <stop offset="0" stop-color="#F4F0EE"/><stop offset="0.35" stop-color="#D4AF37"/><stop offset="1" stop-color="#0B1D34"/>
  </linearGradient>
</defs>
<rect width="1920" height="1080" fill="url(#gGround)"/><line x1="130.0" y1="78.0" x2="1790.0" y2="78.0" stroke="#0B1D34" stroke-width="0.80" opacity="0.28"/><text x="130.0" y="68.0" font-family="Montserrat, Poppins, Arial, sans-serif" font-size="11.0" font-weight="600" fill="#B8912B" letter-spacing="3.40">02 — IDENTIDAD</text><text x="1790.0" y="68.0" font-family="Montserrat, Poppins, Arial, sans-serif" font-size="11.0" font-weight="500" fill="#0B1D34" letter-spacing="3.40" text-anchor="end">MANUAL DE MARCA</text><line x1="130.0" y1="1006.0" x2="1790.0" y2="1006.0" stroke="#0B1D34" stroke-width="0.80" opacity="0.18"/><text x="130.0" y="1032.0" font-family="Montserrat, Poppins, Arial, sans-serif" font-size="10.0" font-weight="500" fill="#0B1D34" letter-spacing="3.40">VELUM ENTERPRISE</text><text x="1790.0" y="1034.0" font-family="Montserrat, Poppins, Arial, sans-serif" font-size="15.0" font-weight="600" fill="#0B1D34" letter-spacing="1.00" text-anchor="end">21</text><text x="1754.0" y="1034.0" font-family="Montserrat, Poppins, Arial, sans-serif" font-size="15.0" font-weight="400" fill="#0B1D34" letter-spacing="1.00" text-anchor="end" opacity="0.40">/ 36</text><text x="130.0" y="210.0" font-family="Montserrat, Poppins, Arial, sans-serif" font-size="12.0" font-weight="600" fill="#B8912B" letter-spacing="3.40">EL MONOGRAMA</text><text x="130.0" y="300.0" font-family="Cinzel, Cormorant Garamond, Georgia, serif" font-size="52.0" font-weight="400" fill="#0B1D34" letter-spacing="2.50">EL ACTIVO MÁS PEQUEÑO</text><text x="130.0" y="356.0" font-family="Montserrat, Poppins, Arial, sans-serif" font-size="16.0" font-weight="400" fill="#55585F" opacity="0.78">La V con el trazo y la estrella es el único activo que funciona por debajo de</text><text x="130.0" y="383.0" font-family="Montserrat, Poppins, Arial, sans-serif" font-size="16.0" font-weight="400" fill="#55585F" opacity="0.78">32 px. Se usa en favicon, avatar, sello, tapa y grabado.</text><rect x="130.0" y="460.0" width="760.0" height="400.0" fill="#E8DCC0" opacity="0.40"/><g transform="translate(330.00 540.00) scale(6.38978)"><g>
      <path fill="#1A1A1A" d="M46.25,7.7c-10.43,1.51-20.91,4.67-29,11.62-3.15,2.63-5.91,5.71-8.21,9.1-1.17,1.67-2.17,3.46-3.13,5.25-.8,1.56-2.73,2.16-4.27,1.33-1.52-.82-2.09-2.72-1.27-4.24C9.05,16.97,23.55,8.74,39.64,7.35c2.17-.24,4.38-.3,6.49-.49.5-.04.64.73.12.83h0Z"/>
      <path fill="#D4AF37" d="M51.98,2.68l.79,2.13c.23.62.72,1.12,1.35,1.35l2.13.79c.12.05.12.22,0,.27l-2.13.79c-.62.23-1.12.72-1.35,1.35l-.79,2.13c-.05.12-.22.12-.27,0l-.79-2.13c-.23-.62-.72-1.12-1.35-1.35l-2.13-.79c-.12-.05-.12-.22,0-.27l2.13-.79c.62-.23,1.12-.72,1.35-1.35l.79-2.13c.05-.12.22-.12.27,0Z"/>
      <g>
        <path fill="#1A1A1A" d="M33.84,8.17c-.96.19-1.91.4-2.85.63l-1.27,3.12c1-.4,2.02-.78,3.04-1.13l1.08-2.63Z"/>
        <path fill="#20344D" d="M32.54,3.71c0,.68-.31,1.84-.92,3.47.94-.22,1.89-.41,2.85-.58l.04-.1c.33-.8.66-1.51.99-2.13.32-.62.7-1.16,1.13-1.6.43-.45.92-.81,1.49-1.09.57-.28,1.25-.49,2.05-.64V0h-11.64v1.03c1.47.19,2.5.53,3.11,1.04.6.51.91,1.05.91,1.63Z"/>
        <path fill="#1A1A1A" d="M17.55,19.07l-1.66-3.83c-1.52.96-2.98,2-4.39,3.11l1.97,4.53c1.19-1.26,2.44-2.46,3.78-3.57.1-.09.21-.16.31-.25Z"/>
        <path fill="#20344D" d="M4.63,3.01c.28.33.79,1.36,1.53,3.06l4.75,10.92c1.41-1.1,2.88-2.14,4.4-3.09l-2.6-5.99c-.85-1.95-1.28-3.4-1.28-4.35,0-.33.05-.64.15-.91.1-.27.3-.51.6-.72.3-.21.72-.39,1.27-.54.55-.15,1.27-.27,2.16-.36V0H.17v1.03c1.17.09,2.09.3,2.76.63.67.33,1.23.78,1.7,1.35Z"/>
        <path fill="#20344D" d="M28.95,13.79l-6.63,16.27-4.18-9.63c-1.43,1.19-2.78,2.49-4.05,3.88l6.22,14.32h1.03l10.69-26.07c-1.06.38-2.08.79-3.08,1.22Z"/>
      </g>
    </g></g><text x="1030.0" y="500.0" font-family="Montserrat, Poppins, Arial, sans-serif" font-size="11.0" font-weight="600" fill="#B8912B" letter-spacing="3.40">FAVICON Y APP</text><circle cx="1120.0" cy="640.0" r="90.0" fill="#0B1D34"/><g transform="translate(1066.00 602.20) scale(1.91693)"><g>
      <path fill="#F7F7F7" d="M46.25,7.7c-10.43,1.51-20.91,4.67-29,11.62-3.15,2.63-5.91,5.71-8.21,9.1-1.17,1.67-2.17,3.46-3.13,5.25-.8,1.56-2.73,2.16-4.27,1.33-1.52-.82-2.09-2.72-1.27-4.24C9.05,16.97,23.55,8.74,39.64,7.35c2.17-.24,4.38-.3,6.49-.49.5-.04.64.73.12.83h0Z"/>
      <path fill="#D4AF37" d="M51.98,2.68l.79,2.13c.23.62.72,1.12,1.35,1.35l2.13.79c.12.05.12.22,0,.27l-2.13.79c-.62.23-1.12.72-1.35,1.35l-.79,2.13c-.05.12-.22.12-.27,0l-.79-2.13c-.23-.62-.72-1.12-1.35-1.35l-2.13-.79c-.12-.05-.12-.22,0-.27l2.13-.79c.62-.23,1.12-.72,1.35-1.35l.79-2.13c.05-.12.22-.12.27,0Z"/>
      <g>
        <path fill="#F7F7F7" d="M33.84,8.17c-.96.19-1.91.4-2.85.63l-1.27,3.12c1-.4,2.02-.78,3.04-1.13l1.08-2.63Z"/>
        <path fill="#DADDE3" d="M32.54,3.71c0,.68-.31,1.84-.92,3.47.94-.22,1.89-.41,2.85-.58l.04-.1c.33-.8.66-1.51.99-2.13.32-.62.7-1.16,1.13-1.6.43-.45.92-.81,1.49-1.09.57-.28,1.25-.49,2.05-.64V0h-11.64v1.03c1.47.19,2.5.53,3.11,1.04.6.51.91,1.05.91,1.63Z"/>
        <path fill="#F7F7F7" d="M17.55,19.07l-1.66-3.83c-1.52.96-2.98,2-4.39,3.11l1.97,4.53c1.19-1.26,2.44-2.46,3.78-3.57.1-.09.21-.16.31-.25Z"/>
        <path fill="#DADDE3" d="M4.63,3.01c.28.33.79,1.36,1.53,3.06l4.75,10.92c1.41-1.1,2.88-2.14,4.4-3.09l-2.6-5.99c-.85-1.95-1.28-3.4-1.28-4.35,0-.33.05-.64.15-.91.1-.27.3-.51.6-.72.3-.21.72-.39,1.27-.54.55-.15,1.27-.27,2.16-.36V0H.17v1.03c1.17.09,2.09.3,2.76.63.67.33,1.23.78,1.7,1.35Z"/>
        <path fill="#DADDE3" d="M28.95,13.79l-6.63,16.27-4.18-9.63c-1.43,1.19-2.78,2.49-4.05,3.88l6.22,14.32h1.03l10.69-26.07c-1.06.38-2.08.79-3.08,1.22Z"/>
      </g>
    </g></g><text x="1120.0" y="758.0" font-family="Montserrat, Poppins, Arial, sans-serif" font-size="12.0" font-weight="400" fill="#55585F" text-anchor="middle">512</text><circle cx="1308.0" cy="640.0" r="64.0" fill="#0B1D34"/><g transform="translate(1269.60 613.12) scale(1.36315)"><g>
      <path fill="#F7F7F7" d="M46.25,7.7c-10.43,1.51-20.91,4.67-29,11.62-3.15,2.63-5.91,5.71-8.21,9.1-1.17,1.67-2.17,3.46-3.13,5.25-.8,1.56-2.73,2.16-4.27,1.33-1.52-.82-2.09-2.72-1.27-4.24C9.05,16.97,23.55,8.74,39.64,7.35c2.17-.24,4.38-.3,6.49-.49.5-.04.64.73.12.83h0Z"/>
      <path fill="#D4AF37" d="M51.98,2.68l.79,2.13c.23.62.72,1.12,1.35,1.35l2.13.79c.12.05.12.22,0,.27l-2.13.79c-.62.23-1.12.72-1.35,1.35l-.79,2.13c-.05.12-.22.12-.27,0l-.79-2.13c-.23-.62-.72-1.12-1.35-1.35l-2.13-.79c-.12-.05-.12-.22,0-.27l2.13-.79c.62-.23,1.12-.72,1.35-1.35l.79-2.13c.05-.12.22-.12.27,0Z"/>
      <g>
        <path fill="#F7F7F7" d="M33.84,8.17c-.96.19-1.91.4-2.85.63l-1.27,3.12c1-.4,2.02-.78,3.04-1.13l1.08-2.63Z"/>
        <path fill="#DADDE3" d="M32.54,3.71c0,.68-.31,1.84-.92,3.47.94-.22,1.89-.41,2.85-.58l.04-.1c.33-.8.66-1.51.99-2.13.32-.62.7-1.16,1.13-1.6.43-.45.92-.81,1.49-1.09.57-.28,1.25-.49,2.05-.64V0h-11.64v1.03c1.47.19,2.5.53,3.11,1.04.6.51.91,1.05.91,1.63Z"/>
        <path fill="#F7F7F7" d="M17.55,19.07l-1.66-3.83c-1.52.96-2.98,2-4.39,3.11l1.97,4.53c1.19-1.26,2.44-2.46,3.78-3.57.1-.09.21-.16.31-.25Z"/>
        <path fill="#DADDE3" d="M4.63,3.01c.28.33.79,1.36,1.53,3.06l4.75,10.92c1.41-1.1,2.88-2.14,4.4-3.09l-2.6-5.99c-.85-1.95-1.28-3.4-1.28-4.35,0-.33.05-.64.15-.91.1-.27.3-.51.6-.72.3-.21.72-.39,1.27-.54.55-.15,1.27-.27,2.16-.36V0H.17v1.03c1.17.09,2.09.3,2.76.63.67.33,1.23.78,1.7,1.35Z"/>
        <path fill="#DADDE3" d="M28.95,13.79l-6.63,16.27-4.18-9.63c-1.43,1.19-2.78,2.49-4.05,3.88l6.22,14.32h1.03l10.69-26.07c-1.06.38-2.08.79-3.08,1.22Z"/>
      </g>
    </g></g><text x="1308.0" y="732.0" font-family="Montserrat, Poppins, Arial, sans-serif" font-size="12.0" font-weight="400" fill="#55585F" text-anchor="middle">180</text><circle cx="1454.0" cy="640.0" r="48.0" fill="#0B1D34"/><g transform="translate(1425.20 619.84) scale(1.02236)"><g>
      <path fill="#F7F7F7" d="M46.25,7.7c-10.43,1.51-20.91,4.67-29,11.62-3.15,2.63-5.91,5.71-8.21,9.1-1.17,1.67-2.17,3.46-3.13,5.25-.8,1.56-2.73,2.16-4.27,1.33-1.52-.82-2.09-2.72-1.27-4.24C9.05,16.97,23.55,8.74,39.64,7.35c2.17-.24,4.38-.3,6.49-.49.5-.04.64.73.12.83h0Z"/>
      <path fill="#D4AF37" d="M51.98,2.68l.79,2.13c.23.62.72,1.12,1.35,1.35l2.13.79c.12.05.12.22,0,.27l-2.13.79c-.62.23-1.12.72-1.35,1.35l-.79,2.13c-.05.12-.22.12-.27,0l-.79-2.13c-.23-.62-.72-1.12-1.35-1.35l-2.13-.79c-.12-.05-.12-.22,0-.27l2.13-.79c.62-.23,1.12-.72,1.35-1.35l.79-2.13c.05-.12.22-.12.27,0Z"/>
      <g>
        <path fill="#F7F7F7" d="M33.84,8.17c-.96.19-1.91.4-2.85.63l-1.27,3.12c1-.4,2.02-.78,3.04-1.13l1.08-2.63Z"/>
        <path fill="#DADDE3" d="M32.54,3.71c0,.68-.31,1.84-.92,3.47.94-.22,1.89-.41,2.85-.58l.04-.1c.33-.8.66-1.51.99-2.13.32-.62.7-1.16,1.13-1.6.43-.45.92-.81,1.49-1.09.57-.28,1.25-.49,2.05-.64V0h-11.64v1.03c1.47.19,2.5.53,3.11,1.04.6.51.91,1.05.91,1.63Z"/>
        <path fill="#F7F7F7" d="M17.55,19.07l-1.66-3.83c-1.52.96-2.98,2-4.39,3.11l1.97,4.53c1.19-1.26,2.44-2.46,3.78-3.57.1-.09.21-.16.31-.25Z"/>
        <path fill="#DADDE3" d="M4.63,3.01c.28.33.79,1.36,1.53,3.06l4.75,10.92c1.41-1.1,2.88-2.14,4.4-3.09l-2.6-5.99c-.85-1.95-1.28-3.4-1.28-4.35,0-.33.05-.64.15-.91.1-.27.3-.51.6-.72.3-.21.72-.39,1.27-.54.55-.15,1.27-.27,2.16-.36V0H.17v1.03c1.17.09,2.09.3,2.76.63.67.33,1.23.78,1.7,1.35Z"/>
        <path fill="#DADDE3" d="M28.95,13.79l-6.63,16.27-4.18-9.63c-1.43,1.19-2.78,2.49-4.05,3.88l6.22,14.32h1.03l10.69-26.07c-1.06.38-2.08.79-3.08,1.22Z"/>
      </g>
    </g></g><text x="1454.0" y="716.0" font-family="Montserrat, Poppins, Arial, sans-serif" font-size="12.0" font-weight="400" fill="#55585F" text-anchor="middle">64</text><circle cx="1572.0" cy="640.0" r="36.0" fill="#0B1D34"/><g transform="translate(1550.40 624.88) scale(0.76677)"><g>
      <path fill="#F7F7F7" d="M46.25,7.7c-10.43,1.51-20.91,4.67-29,11.62-3.15,2.63-5.91,5.71-8.21,9.1-1.17,1.67-2.17,3.46-3.13,5.25-.8,1.56-2.73,2.16-4.27,1.33-1.52-.82-2.09-2.72-1.27-4.24C9.05,16.97,23.55,8.74,39.64,7.35c2.17-.24,4.38-.3,6.49-.49.5-.04.64.73.12.83h0Z"/>
      <path fill="#D4AF37" d="M51.98,2.68l.79,2.13c.23.62.72,1.12,1.35,1.35l2.13.79c.12.05.12.22,0,.27l-2.13.79c-.62.23-1.12.72-1.35,1.35l-.79,2.13c-.05.12-.22.12-.27,0l-.79-2.13c-.23-.62-.72-1.12-1.35-1.35l-2.13-.79c-.12-.05-.12-.22,0-.27l2.13-.79c.62-.23,1.12-.72,1.35-1.35l.79-2.13c.05-.12.22-.12.27,0Z"/>
      <g>
        <path fill="#F7F7F7" d="M33.84,8.17c-.96.19-1.91.4-2.85.63l-1.27,3.12c1-.4,2.02-.78,3.04-1.13l1.08-2.63Z"/>
        <path fill="#DADDE3" d="M32.54,3.71c0,.68-.31,1.84-.92,3.47.94-.22,1.89-.41,2.85-.58l.04-.1c.33-.8.66-1.51.99-2.13.32-.62.7-1.16,1.13-1.6.43-.45.92-.81,1.49-1.09.57-.28,1.25-.49,2.05-.64V0h-11.64v1.03c1.47.19,2.5.53,3.11,1.04.6.51.91,1.05.91,1.63Z"/>
        <path fill="#F7F7F7" d="M17.55,19.07l-1.66-3.83c-1.52.96-2.98,2-4.39,3.11l1.97,4.53c1.19-1.26,2.44-2.46,3.78-3.57.1-.09.21-.16.31-.25Z"/>
        <path fill="#DADDE3" d="M4.63,3.01c.28.33.79,1.36,1.53,3.06l4.75,10.92c1.41-1.1,2.88-2.14,4.4-3.09l-2.6-5.99c-.85-1.95-1.28-3.4-1.28-4.35,0-.33.05-.64.15-.91.1-.27.3-.51.6-.72.3-.21.72-.39,1.27-.54.55-.15,1.27-.27,2.16-.36V0H.17v1.03c1.17.09,2.09.3,2.76.63.67.33,1.23.78,1.7,1.35Z"/>
        <path fill="#DADDE3" d="M28.95,13.79l-6.63,16.27-4.18-9.63c-1.43,1.19-2.78,2.49-4.05,3.88l6.22,14.32h1.03l10.69-26.07c-1.06.38-2.08.79-3.08,1.22Z"/>
      </g>
    </g></g><text x="1572.0" y="704.0" font-family="Montserrat, Poppins, Arial, sans-serif" font-size="12.0" font-weight="400" fill="#55585F" text-anchor="middle">48</text><circle cx="1670.0" cy="640.0" r="28.0" fill="#0B1D34"/><g transform="translate(1653.20 628.24) scale(0.59638)"><g>
      <path fill="#F7F7F7" d="M46.25,7.7c-10.43,1.51-20.91,4.67-29,11.62-3.15,2.63-5.91,5.71-8.21,9.1-1.17,1.67-2.17,3.46-3.13,5.25-.8,1.56-2.73,2.16-4.27,1.33-1.52-.82-2.09-2.72-1.27-4.24C9.05,16.97,23.55,8.74,39.64,7.35c2.17-.24,4.38-.3,6.49-.49.5-.04.64.73.12.83h0Z"/>
      <path fill="#D4AF37" d="M51.98,2.68l.79,2.13c.23.62.72,1.12,1.35,1.35l2.13.79c.12.05.12.22,0,.27l-2.13.79c-.62.23-1.12.72-1.35,1.35l-.79,2.13c-.05.12-.22.12-.27,0l-.79-2.13c-.23-.62-.72-1.12-1.35-1.35l-2.13-.79c-.12-.05-.12-.22,0-.27l2.13-.79c.62-.23,1.12-.72,1.35-1.35l.79-2.13c.05-.12.22-.12.27,0Z"/>
      <g>
        <path fill="#F7F7F7" d="M33.84,8.17c-.96.19-1.91.4-2.85.63l-1.27,3.12c1-.4,2.02-.78,3.04-1.13l1.08-2.63Z"/>
        <path fill="#DADDE3" d="M32.54,3.71c0,.68-.31,1.84-.92,3.47.94-.22,1.89-.41,2.85-.58l.04-.1c.33-.8.66-1.51.99-2.13.32-.62.7-1.16,1.13-1.6.43-.45.92-.81,1.49-1.09.57-.28,1.25-.49,2.05-.64V0h-11.64v1.03c1.47.19,2.5.53,3.11,1.04.6.51.91,1.05.91,1.63Z"/>
        <path fill="#F7F7F7" d="M17.55,19.07l-1.66-3.83c-1.52.96-2.98,2-4.39,3.11l1.97,4.53c1.19-1.26,2.44-2.46,3.78-3.57.1-.09.21-.16.31-.25Z"/>
        <path fill="#DADDE3" d="M4.63,3.01c.28.33.79,1.36,1.53,3.06l4.75,10.92c1.41-1.1,2.88-2.14,4.4-3.09l-2.6-5.99c-.85-1.95-1.28-3.4-1.28-4.35,0-.33.05-.64.15-.91.1-.27.3-.51.6-.72.3-.21.72-.39,1.27-.54.55-.15,1.27-.27,2.16-.36V0H.17v1.03c1.17.09,2.09.3,2.76.63.67.33,1.23.78,1.7,1.35Z"/>
        <path fill="#DADDE3" d="M28.95,13.79l-6.63,16.27-4.18-9.63c-1.43,1.19-2.78,2.49-4.05,3.88l6.22,14.32h1.03l10.69-26.07c-1.06.38-2.08.79-3.08,1.22Z"/>
      </g>
    </g></g><text x="1670.0" y="696.0" font-family="Montserrat, Poppins, Arial, sans-serif" font-size="12.0" font-weight="400" fill="#55585F" text-anchor="middle">32</text><circle cx="1752.0" cy="640.0" r="20.0" fill="#0B1D34"/><g transform="translate(1740.00 631.60) scale(0.42599)"><g>
      <path fill="#F7F7F7" d="M46.25,7.7c-10.43,1.51-20.91,4.67-29,11.62-3.15,2.63-5.91,5.71-8.21,9.1-1.17,1.67-2.17,3.46-3.13,5.25-.8,1.56-2.73,2.16-4.27,1.33-1.52-.82-2.09-2.72-1.27-4.24C9.05,16.97,23.55,8.74,39.64,7.35c2.17-.24,4.38-.3,6.49-.49.5-.04.64.73.12.83h0Z"/>
      <path fill="#D4AF37" d="M51.98,2.68l.79,2.13c.23.62.72,1.12,1.35,1.35l2.13.79c.12.05.12.22,0,.27l-2.13.79c-.62.23-1.12.72-1.35,1.35l-.79,2.13c-.05.12-.22.12-.27,0l-.79-2.13c-.23-.62-.72-1.12-1.35-1.35l-2.13-.79c-.12-.05-.12-.22,0-.27l2.13-.79c.62-.23,1.12-.72,1.35-1.35l.79-2.13c.05-.12.22-.12.27,0Z"/>
      <g>
        <path fill="#F7F7F7" d="M33.84,8.17c-.96.19-1.91.4-2.85.63l-1.27,3.12c1-.4,2.02-.78,3.04-1.13l1.08-2.63Z"/>
        <path fill="#DADDE3" d="M32.54,3.71c0,.68-.31,1.84-.92,3.47.94-.22,1.89-.41,2.85-.58l.04-.1c.33-.8.66-1.51.99-2.13.32-.62.7-1.16,1.13-1.6.43-.45.92-.81,1.49-1.09.57-.28,1.25-.49,2.05-.64V0h-11.64v1.03c1.47.19,2.5.53,3.11,1.04.6.51.91,1.05.91,1.63Z"/>
        <path fill="#F7F7F7" d="M17.55,19.07l-1.66-3.83c-1.52.96-2.98,2-4.39,3.11l1.97,4.53c1.19-1.26,2.44-2.46,3.78-3.57.1-.09.21-.16.31-.25Z"/>
        <path fill="#DADDE3" d="M4.63,3.01c.28.33.79,1.36,1.53,3.06l4.75,10.92c1.41-1.1,2.88-2.14,4.4-3.09l-2.6-5.99c-.85-1.95-1.28-3.4-1.28-4.35,0-.33.05-.64.15-.91.1-.27.3-.51.6-.72.3-.21.72-.39,1.27-.54.55-.15,1.27-.27,2.16-.36V0H.17v1.03c1.17.09,2.09.3,2.76.63.67.33,1.23.78,1.7,1.35Z"/>
        <path fill="#DADDE3" d="M28.95,13.79l-6.63,16.27-4.18-9.63c-1.43,1.19-2.78,2.49-4.05,3.88l6.22,14.32h1.03l10.69-26.07c-1.06.38-2.08.79-3.08,1.22Z"/>
      </g>
    </g></g><text x="1752.0" y="688.0" font-family="Montserrat, Poppins, Arial, sans-serif" font-size="12.0" font-weight="400" fill="#55585F" text-anchor="middle">16</text><line x1="130.0" y1="920.0" x2="1790.0" y2="920.0" stroke="#0B1D34" stroke-width="0.70" opacity="0.16"/><text x="130.0" y="964.0" font-family="Montserrat, Poppins, Arial, sans-serif" font-size="14.0" font-weight="400" fill="#55585F" opacity="0.78">16, 32, 48, 64, 180 y 512 px en azul, blanco y oro. Incluye favicon.ico empaquetado.</text></svg>